# xmcd
#
# Track frame offsets:
#	150
#	17015
#	31967
#	44535
#	60195
#	77502
#	89652
#	107412
#	123307
#	140055
#	155045
#	167630
#	183327
#	200642
#	212832
#	230565
#	257850
#
# Disc length: 3450 seconds
#
# Revision: 1
# Processed by: cddbd v1.5.2PL0 Copyright (c) Steve Scherf et al.
# Submitted via: audiograbber 1.83.01
#
DISCID=ea0d7811
DTITLE=alan jackson - sc2304
DYEAR=1900
DGENRE=country
TTITLE0=Tonight I Climbed The Walls
TTITLE1=Chasin' That Neon Rainbow
TTITLE2=Little Bitty
TTITLE3=Home
TTITLE4=Mercury Blues
TTITLE5=Tall Tall Trees
TTITLE6=Midnight In Montgomery
TTITLE7=I Don't Even Know Your Name
TTITLE8=Tonight I Climbed The Walls (vocal)
TTITLE9=Chasin' That Neon Rainbow (vocal)
TTITLE10=Little Bitty (vocal)
TTITLE11=Home (vocal)
TTITLE12=Mercury Blues (vocal)
TTITLE13=Tall Tall Trees (vocal)
TTITLE14=Midnight In Montgomery (vocal)
TTITLE15=I Don't Even Know Your name (vocal)
TTITLE16=data track
EXTD=
EXTT0=
EXTT1=
EXTT2=
EXTT3=
EXTT4=
EXTT5=
EXTT6=
EXTT7=
EXTT8=
EXTT9=
EXTT10=
EXTT11=
EXTT12=
EXTT13=
EXTT14=
EXTT15=
EXTT16=
PLAYORDER=
